<?xml version="1.0" encoding="UTF-8" standalone="no"?>
<!-- Generator: Adobe Illustrator 14.0.0, SVG Export Plug-In . SVG Version: 6.00 Build 43363)  -->

<svg
   xmlns:dc="http://purl.org/dc/elements/1.1/"
   xmlns:cc="http://creativecommons.org/ns#"
   xmlns:rdf="http://www.w3.org/1999/02/22-rdf-syntax-ns#"
   xmlns:svg="http://www.w3.org/2000/svg"
   xmlns="http://www.w3.org/2000/svg"
   xmlns:xlink="http://www.w3.org/1999/xlink"
   xmlns:sodipodi="http://sodipodi.sourceforge.net/DTD/sodipodi-0.dtd"
   xmlns:inkscape="http://www.inkscape.org/namespaces/inkscape"
   version="1.1"
   id="Calque_1"
   x="0px"
   y="0px"
   width="555.883px"
   height="112.875px"
   viewBox="0 0 555.883 112.875"
   enable-background="new 0 0 555.883 112.875"
   xml:space="preserve"
   sodipodi:docname="ensicafé.svg"
   inkscape:version="0.92.1 r15371"><metadata
     id="metadata38"><rdf:RDF><cc:Work
         rdf:about=""><dc:format>image/svg+xml</dc:format><dc:type
           rdf:resource="http://purl.org/dc/dcmitype/StillImage" /><dc:title></dc:title></cc:Work></rdf:RDF></metadata><defs
     id="defs36"><clipPath
       clipPathUnits="userSpaceOnUse"
       id="clipPath133"><rect
         id="rect135"
         width="358.52246"
         height="113.82347"
         x="0"
         y="0" /></clipPath><style
       id="style6330"
       type="text/css">.str0 {stroke:#A75F4A;stroke-width:19.6259} .fil0 {fill:#A75F4A}</style></defs><sodipodi:namedview
     pagecolor="#ffffff"
     bordercolor="#666666"
     borderopacity="1"
     objecttolerance="10"
     gridtolerance="10"
     guidetolerance="10"
     inkscape:pageopacity="0"
     inkscape:pageshadow="2"
     inkscape:window-width="1920"
     inkscape:window-height="1057"
     id="namedview34"
     showgrid="false"
     inkscape:measure-start="0,0"
     inkscape:measure-end="557.328,-0.670671"
     inkscape:zoom="1.4910439"
     inkscape:cx="193.21502"
     inkscape:cy="42.792641"
     inkscape:window-x="-8"
     inkscape:window-y="-8"
     inkscape:window-maximized="1"
     inkscape:current-layer="g140" /><g
     id="ENSISA_2_"
     clip-path="url(#clipPath133)"
     transform="matrix(0.75044799,0,0,0.75044799,0,28.217045)"
     inkscape:export-xdpi="96"
     inkscape:export-ydpi="96"><g
       id="g30"><defs
         id="defs11"><rect
           id="SVGID_1_"
           width="555.883"
           height="112.875"
           x="0"
           y="0" /></defs><clipPath
         id="SVGID_2_"><use
           xlink:href="#SVGID_1_"
           overflow="visible"
           id="use13"
           style="overflow:visible"
           x="0"
           y="0"
           width="100%"
           height="100%" /></clipPath><path
         clip-path="url(#SVGID_2_)"
         d="m 21.643,53.9 c 4.609,0 9.212,0.416 13.815,0.416 11.743,0 40.762,-1.681 40.762,-20.694 0,-11.42 -11.969,-17.553 -21.879,-17.553 -21.414,0 -32.698,12.261 -32.698,28.322 z M 14.705,15.015 C 27.586,3.064 36.376,0.028 56.193,0.028 c 25.313,0 43.06,10.13 43.06,33.594 0,27.059 -32.235,35.508 -54.583,35.508 -8.526,0 -14.503,0 -23.027,-0.428 0,18.604 7.367,28.12 29.017,28.12 12.211,0 25.334,-4.237 34.078,-10.992 l 1.15,16.886 C 75.07,108.646 62.176,112.87 47.201,112.87 13.579,112.869 0,97.653 0,68.277 V 57.325 C 0,46.298 1.83,26.988 14.705,15.015"
         id="path16"
         style="fill:#8aa7d2"
         inkscape:connector-curvature="0" /><path
         clip-path="url(#SVGID_2_)"
         d="m 534.238,58.978 c -4.627,0 -9.224,-0.431 -13.833,-0.431 -11.736,0 -40.762,1.7 -40.762,20.726 0,11.401 11.973,17.537 21.88,17.537 21.426,0 32.715,-12.258 32.715,-28.318 z m 6.93,38.885 c -12.885,11.954 -21.675,15.012 -41.481,15.012 -25.334,0 -43.082,-10.16 -43.082,-33.603 0,-27.065 32.258,-35.518 54.595,-35.518 8.518,0 14.504,0 23.039,0.435 0,-18.607 -7.382,-28.12 -29.037,-28.12 -12.195,0 -25.322,4.231 -34.081,10.996 L 469.974,10.158 C 480.798,4.233 493.713,0 508.669,0 c 33.622,0 47.214,15.223 47.214,44.611 v 10.946 c -0.014,11.029 -1.843,30.346 -14.715,42.306"
         id="path18"
         style="fill:#0060a9"
         inkscape:connector-curvature="0" /><path
         clip-path="url(#SVGID_2_)"
         d="m 228.499,89.198 c 8.526,5.074 20.722,7.611 26.948,7.611 9.894,0 22.105,-3.809 22.105,-15.428 0,-19.655 -50.898,-17.968 -50.898,-48.199 0,-22.4 18.198,-33.163 41.454,-33.163 10.133,0 18.421,1.895 26.95,4.215 l -1.839,17.329 c -4.846,-2.732 -17.736,-5.493 -22.816,-5.493 -11.042,0 -20.71,4.225 -20.71,13.104 0,21.988 50.883,15.648 50.883,50.099 0,23.032 -20.037,33.603 -40.989,33.603 -11.051,0 -22.338,-1.055 -32.249,-5.918 z"
         id="path20"
         style="fill:#8aa7d2"
         inkscape:connector-curvature="0" /><path
         clip-path="url(#SVGID_2_)"
         d="m 440.836,106.957 c -9.913,4.857 -21.19,5.912 -32.239,5.912 -20.954,0 -40.998,-10.564 -40.998,-33.597 0,-34.441 50.886,-28.12 50.886,-50.099 0,-8.874 -9.651,-13.104 -20.719,-13.104 -5.062,0 -17.964,2.745 -22.797,5.493 l -1.83,-17.329 c 8.523,-2.32 16.806,-4.215 26.947,-4.215 23.257,0 41.438,10.763 41.438,33.163 0,30.231 -50.898,28.544 -50.898,48.206 0,11.612 12.227,15.421 22.127,15.421 6.203,0 18.405,-2.538 26.929,-7.611 z"
         id="path22"
         style="fill:#0060a9"
         inkscape:connector-curvature="0" /><path
         clip-path="url(#SVGID_2_)"
         d="m 177.505,65.922 c 0,8.852 -7.177,16.017 -16.029,16.017 -8.846,0 -16.017,-7.165 -16.017,-16.017 0,-8.852 7.171,-16.011 16.017,-16.011 8.852,10e-4 16.029,7.159 16.029,16.011"
         id="path24"
         style="fill:#ffdd00"
         inkscape:connector-curvature="0" /><path
         clip-path="url(#SVGID_2_)"
         d="m 326.949,0.019 c -2.916,16.29 -4.913,34.639 -4.913,54.049 0,21.321 1.973,41.352 5.443,58.807 h 13.229 c 3.467,-17.456 5.435,-37.486 5.435,-58.807 0,-19.41 -2.004,-37.759 -4.895,-54.049 z"
         id="path26"
         style="fill:#8aa7d2"
         inkscape:connector-curvature="0" /><path
         clip-path="url(#SVGID_2_)"
         d="m 166.649,0.019 c -10.902,0 -20.027,4.857 -27.558,12.854 -4.917,4.844 -5.577,-9.401 -5.577,-9.401 L 114.442,3.435 c 0.903,42.961 -2.019,70.652 -3.716,91.762 -0.258,2.878 -0.856,11.582 -0.952,17.679 h 17.366 c 2.987,-31.165 1.434,-90.23 37.357,-90.23 26.479,0 29.422,60.014 29.962,90.23 h 17.363 C 210.99,64.471 206.453,0.019 166.649,0.019"
         id="path28"
         style="fill:#8aa7d2"
         inkscape:connector-curvature="0" /></g></g><g
     style="fill:#e6c852;fill-opacity:1"
     transform="translate(-286.0412,15.80963)"
     id="g140"><text
       id="text44"
       y="96.778893"
       x="562.69305"
       style="font-style:normal;font-weight:normal;font-size:40px;line-height:1.25;font-family:sans-serif;letter-spacing:0px;word-spacing:0px;fill:#e6c852;fill-opacity:1;stroke:none"
       xml:space="preserve"><tspan
         style="font-style:normal;font-variant:normal;font-weight:normal;font-stretch:normal;font-size:192px;font-family:Vibur;-inkscape-font-specification:Vibur;fill:#e6c852;fill-opacity:1"
         y="96.778893"
         x="562.69305"
         id="tspan42"
         sodipodi:role="line">café</tspan></text>
<path
       style="fill:#e6c852;fill-opacity:1"
       inkscape:connector-curvature="0"
       d="m 569.40822,89.223357 c -2.08386,0.404035 -4.10844,1.079266 -6.12453,1.73633 -1.55416,0.514708 -2.98249,1.298298 -4.46245,1.984063 -0.6447,0.352884 -1.29384,0.698319 -1.94812,1.032637 -0.2184,0.111596 -0.88003,0.431715 -0.66806,0.30835 10.85918,-6.319768 10.35045,-6.016907 7.32212,-4.161082 -19.12018,11.080595 -5.97733,3.455084 -1.3392,0.798926 0.23644,-0.135405 -0.46709,0.28089 -0.69566,0.429196 -0.7185,0.466185 -1.39033,0.99435 -2.07047,1.513514 -2.14799,1.534959 -4.02926,3.39122 -5.88525,5.257663 -1.9642,2.039326 -3.73906,4.265266 -5.27826,6.641166 -1.08006,1.85638 -2.0401,3.77731 -2.86813,5.75833 -0.84578,1.94967 -1.44693,3.9814 -2.02167,6.02217 -0.52986,1.70775 -0.81701,3.46933 -0.96951,5.24653 -0.10093,1.17739 -0.16772,2.37569 0.46261,3.41722 0.52197,1.02095 1.40328,1.27776 2.4621,1.42911 1.27206,0.12105 2.55233,0.0998 3.82859,0.0946 1.36285,0.12589 2.65614,-0.15877 3.98598,-0.38762 1.59614,-0.52515 3.16547,-1.14634 4.69692,-1.84096 2.22208,-0.98292 4.48096,-1.87686 6.75133,-2.74781 2.73108,-1.13872 5.44944,-2.31155 8.21329,-3.37257 3.1137,-1.19285 6.24604,-2.36165 9.43346,-3.34093 3.46411,-1.19958 6.96453,-2.31422 10.51903,-3.2123 3.51395,-0.99555 7.08979,-1.73768 10.67227,-2.43598 4.00135,-0.93098 8.07015,-1.53439 12.12474,-2.17999 4.13841,-0.5845 8.29229,-1.09175 12.45187,-1.50521 5.10976,-0.40968 10.21867,-0.82132 15.33298,-1.17104 5.14873,-0.31648 10.30393,-0.42255 15.45045,-0.76902 5.11543,-0.3123 10.24453,-0.35851 15.36815,-0.42296 4.49999,-0.0497 9.00029,-0.0547 13.5005,-0.0574 4.13986,-0.003 8.27971,0.005 12.41957,0.006 4.13423,-3e-4 8.26846,-0.002 12.40268,-0.003 4.16543,-7.7e-4 8.33086,0.004 12.49629,0.003 4.29225,0.006 8.5845,10e-4 12.87675,-9.6e-4 5.25685,0.32262 10.52522,0.38609 15.78296,0.67453 5.53379,0.36198 11.07585,0.52493 16.61233,0.83591 6.65976,0.38955 13.31125,0.92417 19.96239,1.44175 7.99061,0.61023 15.97464,1.33917 23.9359,2.25819 7.1929,0.76322 14.35186,1.83065 21.46507,3.13894 6.37899,1.03823 12.68349,2.44347 18.98055,3.88169 5.41477,1.20707 10.69052,2.90113 15.84972,4.92568 3.70534,1.49835 7.21578,3.42356 10.345,5.91155 2.09041,1.66418 3.67315,3.76338 4.70338,6.21567 0.75251,1.98924 0.91844,3.68607 0.38347,5.73536 -0.74953,2.22351 -2.05677,4.1763 -3.45174,6.03912 -0.28428,0.3353 -0.56855,0.6706 -0.85283,1.0059 0,0 -9.10734,3.84275 -9.10734,3.84275 v 0 c 0.28834,-0.31806 0.57668,-0.63611 0.86501,-0.95417 1.43225,-1.73138 2.68843,-3.61121 3.57292,-5.68552 0.6631,-1.93048 0.61216,-3.18886 -0.0591,-5.14313 -0.92568,-2.31609 -2.43041,-4.25677 -4.38489,-5.81602 -3.06087,-2.40328 -6.47416,-4.27048 -10.07514,-5.74403 -5.11391,-2.01462 -10.37227,-3.59676 -15.72825,-4.83626 -6.2561,-1.46982 -12.54459,-2.79171 -18.87681,-3.89407 -7.10399,-1.22827 -14.22861,-2.35535 -21.40071,-3.11067 -7.95364,-0.8951 -15.92242,-1.63852 -23.90417,-2.23698 -6.69215,-0.49881 -13.39073,-0.91677 -20.08878,-1.32921 -5.53882,-0.32546 -11.08566,-0.43352 -16.62072,-0.82467 -5.2698,-0.27026 -10.54686,-0.38689 -15.81986,-0.58417 -4.29138,-0.002 -8.58277,-0.007 -12.87416,-9.2e-4 -4.16833,-10e-4 -8.33665,0.004 -12.50499,0.003 -4.13109,-8.9e-4 -8.26218,-0.003 -12.39327,-0.004 -4.14141,-9.4e-4 -8.28282,0.004 -12.42423,-0.003 -4.47883,-0.004 -8.95776,-0.0108 -13.43649,0.025 -5.13125,0.0554 -10.26499,0.13586 -15.38557,0.49857 -5.11202,0.30848 -10.23422,0.3482 -15.34455,0.69735 -5.15598,0.36043 -10.30048,0.85023 -15.44948,1.29684 -4.12836,0.43312 -8.25916,0.88026 -12.36259,1.50951 -4.07709,0.66631 -8.15464,1.33782 -12.18232,2.26623 -3.56292,0.71218 -7.11674,1.46453 -10.61154,2.46788 -3.53322,0.97379 -7.03429,2.05622 -10.49599,3.26073 -3.15583,1.06321 -6.30419,2.15356 -9.39785,3.38828 -2.77481,1.09963 -5.50294,2.31041 -8.27376,3.42026 -2.25751,0.89623 -4.51945,1.78045 -6.73371,2.78037 -1.59319,0.65966 -3.18473,1.38456 -4.89257,1.6908 -1.35648,0.22945 -2.71097,0.30441 -4.08748,0.25288 -1.32209,-0.006 -2.65755,0.005 -3.95898,-0.2597 -1.24739,-0.34596 -2.27512,-0.94114 -2.90527,-2.12161 -0.72352,-1.23383 -0.88692,-2.552 -0.72918,-3.96908 0.13112,-1.84171 0.39293,-3.67077 0.91024,-5.44805 0.63057,-2.04625 1.10655,-4.14211 1.98073,-6.10904 0.79678,-2.04649 1.77198,-4.00538 2.82594,-5.93125 1.48948,-2.45347 3.27783,-4.71556 5.20842,-6.83508 1.79948,-1.9163 3.70124,-3.74701 5.75657,-5.389647 0.92494,-0.644422 1.75052,-1.455032 2.72504,-2.026866 0.44537,-0.261342 21.96436,-12.724598 1.3448,-0.769068 3.955,-2.61007 8.12754,-4.884576 12.36599,-6.997912 1.46479,-0.724495 2.9705,-1.353686 4.52453,-1.863266 2.03949,-0.653235 4.10743,-1.226595 6.20136,-1.677606 0,0 -7.92837,6.029502 -7.92837,6.029502 z"
       id="path94" /></g><g
     style="clip-rule:evenodd;fill:#e6c852;fill-opacity:1;fill-rule:evenodd;image-rendering:optimizeQuality;shape-rendering:geometricPrecision;text-rendering:geometricPrecision"
     id="g6344"
     transform="matrix(0.00903566,0,0,0.00903566,-222.08638,-104.84132)"
     inkscape:export-xdpi="96"
     inkscape:export-ydpi="96"><path
       id="path6334"
       d="m -401.44615,22038.671 c -2220.99995,659 -3278.99995,2450 -221.99998,3455 4977.99953,1637 9454.99933,1513 13925.99913,575 2999,-629 4133,-1665 3326,-2933 1527,1495 -321,2647 -2997,3357 -4383.9998,1163 -10778.9991,990 -14727.9991,-507 -3281.0001,-1244 -2189,-3179 693.99995,-3947 z M 9319.5532,4743.6711 c -1182,645 -1142,1243 -898,1686 26,-576 105,-797 1215,-1474 1062.9998,-647 663.9998,-1329 355,-1721 158.9998,608 259.9998,1000 -673,1509 z m 656,5074 c -1695,924.9999 -2526,1691.9999 -2846,2512.9999 -977,-120 -2292.9997,-13 -3694.9993,411 -1054,319 -2428.0001,1173 -2164.0001,1761 -1510.99995,3638 -257,7881 3484.9997,9291 -2019.9996,-1611 -4342.99965,-3261 -3214.9996,-8652 1629,1180 3368.9996,1205 5147.9993,1233 1964,31 4106.9998,-163 5591.9998,-1060 2199,3578 -1161,7197 -4202.9998,8771 2289.9998,-957 4514.9998,-1752 5418.9998,-4788 505,-1697 315,-3404 -719,-5372 -16,645 -137,830 -1232,1460 1500,-1013 -951,-2132 -3876.9998,-2244 86,-178 197,-353 342,-532 635,25 1283,67 1931,110 -483,-223 -1201,-311 -1829,-354 498,-561 1341,-1052 2785.9998,-1931 3090,-1880.9999 1930,-3860.9999 1031,-5000.9999 461,1766 755,2906 -1954.9998,4384 z m -2894,2770.9999 c -61,186 -96,368 -110,546 -1486,27 -3021.9993,325 -4178.9993,1034 1133,-456 2691.9993,-716 4173.9993,-744 23,467 184,900 400,1292 23,-502 60,-911 187,-1291 1211,28 2322,220 3040.9998,597 1501,787 734,1470 -473,1762 -916.9998,142 -2079.9998,209 -3505.9998,189 -4646.9993,-66 -5280.9994,-1558 -4531.9993,-2156 1252,-998 3035.9993,-1239 4996.9993,-1228 z m 2540,-5838.9999 c -2008,1095 -1941,2111 -1525,2864 45,-978 178,-1355 2064.9998,-2503 1807,-1100 1129,-2257 603,-2924 270,1032 442,1699 -1142.9998,2563 z M 12582.553,22450.671 c 1474,-1267 4299,-3451 1827,-5244 -1066,-773 -45,-2018 1261,-1297 1355,747 1929,2120 585,3819 -1052,1329 -2422,2047 -3673,2723 z"
       class="fil0 str0"
       inkscape:connector-curvature="0"
       style="fill:#e6c852;fill-opacity:1;stroke:#a75f4a;stroke-width:19.62590027"
       inkscape:export-xdpi="96"
       inkscape:export-ydpi="96" /></g></svg>